<?xml version="1.0" encoding="UTF-8"?>
<svg width="900" height="440" viewBox="0 0 900 440" fill="none" xmlns="http://www.w3.org/2000/svg">
  <style>
    .title { font: 600 18px/1.2 system-ui, -apple-system, Segoe UI, Roboto, Helvetica, Arial; fill: #e5e7eb; }
    .label { font: 600 13px/1.2 system-ui, -apple-system, Segoe UI, Roboto, Helvetica, Arial; fill: #e5e7eb; }
    .percent { font: 600 12px/1.2 system-ui, -apple-system, Segoe UI, Roboto, Helvetica, Arial; fill: #cbd5e1; }
  </style>
  <!-- dark background for GitHub dark mode -->
  <rect x="0" y="0" width="900" height="440" fill="#0d1117" rx="12"/>
  <text x="24" y="36" class="title">Tech Stack — Proficiency</text>

  <!-- layout constants -->
  <!-- paddingLeft=24, labelsWidth=170, chartX=194, chartWidth=622, percentX=832 -->
  <!-- barHeight=16, gap=12, startY=70, step=28 -->

  <!-- row 0: HTML 98% -->
  <text x="24" y="82" class="label">HTML</text>
  <rect x="194" y="70" width="622" height="16" fill="#1f2937" rx="8"/>
  <rect x="194" y="70" width="609.56" height="16" fill="#6366f1" rx="8"/>
  <text x="832" y="82" class="percent">98%</text>

  <!-- row 1: CSS 98% -->
  <text x="24" y="110" class="label">CSS</text>
  <rect x="194" y="98" width="622" height="16" fill="#1f2937" rx="8"/>
  <rect x="194" y="98" width="609.56" height="16" fill="#6366f1" rx="8"/>
  <text x="832" y="110" class="percent">98%</text>

  <!-- row 2: Responsive Design 98% -->
  <text x="24" y="138" class="label">Responsive Design</text>
  <rect x="194" y="126" width="622" height="16" fill="#1f2937" rx="8"/>
  <rect x="194" y="126" width="609.56" height="16" fill="#6366f1" rx="8"/>
  <text x="832" y="138" class="percent">98%</text>

  <!-- row 3: PHP 95% -->
  <text x="24" y="166" class="label">PHP</text>
  <rect x="194" y="154" width="622" height="16" fill="#1f2937" rx="8"/>
  <rect x="194" y="154" width="590.9" height="16" fill="#6366f1" rx="8"/>
  <text x="832" y="166" class="percent">95%</text>

  <!-- row 4: SQL 95% -->
  <text x="24" y="194" class="label">SQL</text>
  <rect x="194" y="182" width="622" height="16" fill="#1f2937" rx="8"/>
  <rect x="194" y="182" width="590.9" height="16" fill="#6366f1" rx="8"/>
  <text x="832" y="194" class="percent">95%</text>

  <!-- row 5: GIT 95% -->
  <text x="24" y="222" class="label">GIT</text>
  <rect x="194" y="210" width="622" height="16" fill="#1f2937" rx="8"/>
  <rect x="194" y="210" width="590.9" height="16" fill="#6366f1" rx="8"/>
  <text x="832" y="222" class="percent">95%</text>

  <!-- row 6: JavaScript 90% -->
  <text x="24" y="250" class="label">JavaScript</text>
  <rect x="194" y="238" width="622" height="16" fill="#1f2937" rx="8"/>
  <rect x="194" y="238" width="559.8" height="16" fill="#6366f1" rx="8"/>
  <text x="832" y="250" class="percent">90%</text>

  <!-- row 7: Laravel 90% -->
  <text x="24" y="278" class="label">Laravel</text>
  <rect x="194" y="266" width="622" height="16" fill="#1f2937" rx="8"/>
  <rect x="194" y="266" width="559.8" height="16" fill="#6366f1" rx="8"/>
  <text x="832" y="278" class="percent">90%</text>

  <!-- row 8: Vue 90% -->
  <text x="24" y="306" class="label">Vue</text>
  <rect x="194" y="294" width="622" height="16" fill="#1f2937" rx="8"/>
  <rect x="194" y="294" width="559.8" height="16" fill="#6366f1" rx="8"/>
  <text x="832" y="306" class="percent">90%</text>

  <!-- row 9: TailwindCSS 90% -->
  <text x="24" y="334" class="label">TailwindCSS</text>
  <rect x="194" y="322" width="622" height="16" fill="#1f2937" rx="8"/>
  <rect x="194" y="322" width="559.8" height="16" fill="#6366f1" rx="8"/>
  <text x="832" y="334" class="percent">90%</text>

  <!-- row 10: Bootstrap 90% -->
  <text x="24" y="362" class="label">Bootstrap</text>
  <rect x="194" y="350" width="622" height="16" fill="#1f2937" rx="8"/>
  <rect x="194" y="350" width="559.8" height="16" fill="#6366f1" rx="8"/>
  <text x="832" y="362" class="percent">90%</text>

  <!-- row 11: TCPDF 90% -->
  <text x="24" y="390" class="label">TCPDF</text>
  <rect x="194" y="378" width="622" height="16" fill="#1f2937" rx="8"/>
  <rect x="194" y="378" width="559.8" height="16" fill="#6366f1" rx="8"/>
  <text x="832" y="390" class="percent">90%</text>

  <!-- row 12: GitHub 90% -->
  <text x="24" y="418" class="label">GitHub</text>
  <rect x="194" y="406" width="622" height="16" fill="#1f2937" rx="8"/>
  <rect x="194" y="406" width="559.8" height="16" fill="#6366f1" rx="8"/>
  <text x="832" y="418" class="percent">90%</text>
</svg>
